#define MELODYPIN 8


// bano hoshech legaresh
#define SONG1_NOTES NOTE_D4, NOTE_C4,NOTE_D4,NOTE_F4,NOTE_E4,NOTE_F4,NOTE_D4, \
NOTE_D4, NOTE_C4,NOTE_D4,NOTE_F4,NOTE_E4,NOTE_F4,NOTE_D4, \
NOTE_G4, NOTE_F4,NOTE_G4,NOTE_F4,NOTE_D4,NOTE_F4,NOTE_G4, \
NOTE_G4, NOTE_F4,NOTE_G4,NOTE_F4,NOTE_D4,NOTE_F4,NOTE_G4 
#define SONG1_DUR 6,12,8,8,8,8,4, \
6,12,8,8,8,8,4, \
 6,12,8,8,8,8,4,  \
 6,12,8,8,8,8,4
#define SONG1_SIZE 28


// Hanuka Hanuka
#define SONG2_NOTES NOTE_G4,NOTE_E4,NOTE_G4,NOTE_G4,NOTE_E4,NOTE_G4, \
NOTE_E4,NOTE_G4,NOTE_C5,NOTE_B4,NOTE_A4, \
NOTE_F4,NOTE_D4,NOTE_F4,NOTE_F4,NOTE_D4,NOTE_F4, \
NOTE_D4,NOTE_F4,NOTE_B4,NOTE_A4,NOTE_G4, \
NOTE_G4,NOTE_E4,NOTE_G4,NOTE_G4,NOTE_E4,NOTE_G4,  \
NOTE_E4,NOTE_G4,NOTE_C5,NOTE_B4,NOTE_A4, \
NOTE_B4,NOTE_B4,NOTE_B4,NOTE_B4,NOTE_B4,NOTE_B4, \
NOTE_B4,NOTE_G4,NOTE_A4,NOTE_B4,NOTE_C5 
#define SONG2_DUR   8, 8, 4, 8,8,4,8,8,8,8,2, \
8, 8, 4, 8,8,4,8,8,8,8,2, \
  8, 8, 4, 8,8,4,8,8,8,8,2, \
  8, 8, 4, 8,8,4,8,8,8,8,2   
#define SONG2_SIZE 44



// Sevivon
#define SONG3_NOTES NOTE_E4,NOTE_E4,NOTE_FS4,  NOTE_G4,NOTE_G4,NOTE_FS4, \
NOTE_B4, NOTE_B4, NOTE_A4, NOTE_G4,NOTE_FS4,NOTE_E4,NOTE_G4,NOTE_G4,NOTE_FS4, \
NOTE_E4,NOTE_E4,NOTE_FS4,  NOTE_G4,NOTE_G4,NOTE_A4, \
NOTE_B4,NOTE_B4,NOTE_B4,NOTE_B3,NOTE_E4,NOTE_E4,NOTE_E4
#define SONG3_DUR  8,8,4,8,8,4, \
8,8,16,16,16,16,8,8,4, \ 
8,8,4,8,8,4, \
8,8,8,8,8,8,4
#define SONG3_SIZE 28

// Yemey Ha hanuka
#define SONG4_NOTES NOTE_E4,NOTE_E4,NOTE_E4,NOTE_E4,NOTE_E4,NOTE_A4, NOTE_E4,NOTE_E4,NOTE_E4,NOTE_D4,NOTE_C4,NOTE_D4,NOTE_C4, \
NOTE_E4,NOTE_E4,NOTE_E4,NOTE_E4,NOTE_E4,NOTE_A4, NOTE_E4,NOTE_E4,NOTE_E4,NOTE_D4,NOTE_C4,NOTE_D4,NOTE_C4, \
NOTE_C4,NOTE_D4,NOTE_E4,NOTE_D4,NOTE_C4, NOTE_C4,NOTE_C4,NOTE_D4,NOTE_C4,NOTE_B3,NOTE_C4, \
NOTE_C4,NOTE_D4,NOTE_E4,NOTE_D4,NOTE_C4, NOTE_C4,NOTE_D4,NOTE_C4,NOTE_B3,NOTE_A3
#define SONG4_DUR  8,8,8,8,8,4,8,8,4,8,8,4,8, \
8,8,8,8,8,4,8,8,4,8,8,4,4, \
8,8,8,8,4,8,8,4,8,8,2, \
8,8,8,8,4,4,4,8,8,4
#define SONG4_SIZE 47


